<?xml version="1.0" encoding="UTF-8" standalone="no"?>
<!-- Created with Inkscape (http://www.inkscape.org/) -->

<svg
   version="1.1"
   id="svg1458"
   width="73.044449"
   height="31.26226"
   viewBox="0 0 73.04445 31.262262"
   sodipodi:docname="Logo.svg"
   inkscape:version="1.2.1 (9c6d41e410, 2022-07-14)"
   xmlns:inkscape="http://www.inkscape.org/namespaces/inkscape"
   xmlns:sodipodi="http://sodipodi.sourceforge.net/DTD/sodipodi-0.dtd"
   xmlns="http://www.w3.org/2000/svg"
   xmlns:svg="http://www.w3.org/2000/svg">
  <defs
     id="defs1462" />
  <sodipodi:namedview
     id="namedview1460"
     pagecolor="#ffffff"
     bordercolor="#000000"
     borderopacity="0.25"
     inkscape:showpageshadow="2"
     inkscape:pageopacity="0"
     inkscape:pagecheckerboard="0"
     inkscape:deskcolor="#d1d1d1"
     showgrid="false"
     inkscape:zoom="4"
     inkscape:cx="-6.75"
     inkscape:cy="38.25"
     inkscape:window-width="1366"
     inkscape:window-height="699"
     inkscape:window-x="0"
     inkscape:window-y="0"
     inkscape:window-maximized="1"
     inkscape:current-layer="g1464" />
  <g
     inkscape:groupmode="layer"
     inkscape:label="Image"
     id="g1464"
     transform="translate(-844.20288,-486.89589)"
     style="display:inline">
    <path
       style="fill:#008000;fill-opacity:1;stroke-width:1.42472"
       d="m 853.99974,518.07636 c -5.17534,-0.61646 -9.22414,-4.70138 -9.74036,-9.82722 -0.0364,-0.36188 -0.0565,-4.24497 -0.0565,-10.93295 v -10.37176 h 10.37721 c 6.65156,0 10.63227,0.0201 11.08766,0.056 3.52202,0.27781 6.6971,2.18801 8.57177,5.15694 0.83678,1.32524 1.4014,2.93343 1.58487,4.51422 0.0369,0.31732 0.0568,4.15616 0.0571,10.98715 l 4.5e-4,10.49941 -10.64691,-0.006 c -8.33709,-0.005 -10.77455,-0.0211 -11.23524,-0.0759 z m -2.7192,-8.71985 c 0.38239,-0.15715 0.36001,0.23185 0.36001,-6.25871 v -5.85338 l 0.17031,-0.1908 c 0.10047,-0.11263 0.25672,-0.21368 0.38121,-0.24665 0.14136,-0.0374 2.78175,-0.0511 8.00712,-0.0414 7.78717,0.0146 7.79638,0.0146 7.95174,0.12667 0.32779,0.23654 0.3482,0.34585 0.3482,1.86572 0,1.51985 -0.0204,1.62918 -0.34819,1.86572 -0.1545,0.11152 -0.19493,0.11238 -6.18908,0.13933 l -6.03356,0.027 -0.13301,0.15205 c -0.18754,0.21447 -0.1772,0.47491 0.0278,0.70059 l 0.16076,0.17698 h 6.05108 c 5.72666,0 6.06663,-0.006 6.34096,-0.0993 0.38565,-0.13221 0.84501,-0.54904 1.0437,-0.94702 l 0.15395,-0.30835 v -1.707 c 0,-1.64937 -0.005,-1.71571 -0.12226,-1.9649 -0.18189,-0.38382 -0.56818,-0.75976 -0.96676,-0.94083 l -0.34346,-0.15604 h -8.07127 -8.07127 l -0.31742,0.12609 c -0.38445,0.15268 -0.79108,0.52787 -0.97928,0.90356 l -0.13566,0.27095 -0.0146,6.02345 -0.0146,6.02345 0.14054,0.1643 c 0.0773,0.0903 0.19549,0.17475 0.26264,0.18754 0.0671,0.0131 0.12909,0.0266 0.1376,0.0307 0.008,0.005 0.0999,-0.0274 0.20294,-0.0697 z m 17.1912,-0.10214 c 0.54714,-0.25152 0.88055,-0.63232 1.04713,-1.19595 0.0759,-0.2569 0.0871,-0.54584 0.0723,-1.86248 l -0.0176,-1.55839 -0.15396,-0.30835 c -0.18753,-0.37562 -0.65005,-0.80669 -1.01484,-0.9458 -0.24916,-0.095 -0.5559,-0.1014 -5.58022,-0.11695 -5.54499,-0.0171 -5.73925,-0.01 -6.18521,0.21338 -0.30873,0.15491 -0.63761,0.50349 -0.80356,0.85165 -0.12198,0.25584 -0.14588,0.38168 -0.14588,0.7667 0,0.42129 0.016,0.48968 0.18774,0.8012 0.22056,0.40008 0.4632,0.62487 0.88406,0.81903 l 0.30553,0.14093 4.71054,0.0154 c 2.59078,0.009 4.76843,0.001 4.83919,-0.0157 0.39292,-0.095 0.52686,-0.60959 0.2337,-0.89794 l -0.16105,-0.1584 h -4.66512 c -4.24367,0 -4.68265,-0.009 -4.85902,-0.0904 -0.5911,-0.27591 -0.4949,-1.13904 0.1474,-1.3224 0.12938,-0.037 1.96226,-0.0502 5.43879,-0.0395 5.20388,0.0162 5.24487,0.0172 5.39922,0.12857 0.32777,0.23655 0.34818,0.34588 0.34818,1.86573 0,1.51988 -0.0203,1.62921 -0.3482,1.86573 -0.15531,0.112 -0.16625,0.11225 -6.8084,0.11225 h -6.65285 l -0.20001,-0.15005 c -0.12714,-0.0955 -0.22078,-0.22365 -0.25709,-0.35225 -0.0369,-0.13074 -0.0572,-1.56205 -0.0573,-4.04971 -2.3e-4,-4.28989 -0.0181,-4.08641 0.37964,-4.34771 l 0.1872,-0.12299 h 5.97379 5.97378 l 0.16104,-0.15842 c 0.26738,-0.26298 0.21159,-0.67829 -0.11329,-0.84356 -0.24001,-0.122 -11.90326,-0.12377 -12.32086,-0.001 -0.39502,0.11534 -0.7519,0.3684 -0.97814,0.69348 -0.37444,0.53799 -0.37058,0.48354 -0.35333,4.97844 l 0.0154,4.02938 0.14518,0.30454 c 0.27204,0.57069 0.78911,0.98034 1.35894,1.07666 0.1424,0.0241 3.24635,0.0401 6.89771,0.0358 l 6.63883,-0.007 z m 11.95539,8.85277 c -0.75184,-0.12027 -1.26669,-0.36385 -1.68187,-0.79564 -0.27847,-0.28961 -0.51686,-0.71372 -0.58242,-1.03621 -0.0384,-0.18878 -0.0637,-0.17685 0.7664,-0.36315 0.55244,-0.12406 0.56859,-0.12003 0.72376,0.18123 0.42898,0.8327 1.65403,1.01865 2.30006,0.34913 0.58563,-0.60691 0.4166,-1.79504 -0.31541,-2.21697 -0.20487,-0.11805 -0.34475,-0.15317 -0.67917,-0.17025 -0.73212,-0.0374 -0.67508,0.0217 -0.6571,-0.68099 l 0.0157,-0.60816 0.44231,-0.0324 c 0.51926,-0.0381 0.77883,-0.1453 1.04026,-0.42994 0.22133,-0.24098 0.30725,-0.49978 0.30768,-0.92686 6.9e-4,-0.69939 -0.50594,-1.1862 -1.23183,-1.18364 -0.57862,0.001 -0.943,0.24352 -1.18741,0.78696 -0.0597,0.1328 -0.11625,0.24032 -0.12547,0.23894 -0.0102,-0.001 -0.30198,-0.0707 -0.65046,-0.15409 l -0.63357,-0.15158 0.0145,-0.1846 c 0.008,-0.10152 0.0892,-0.3351 0.18039,-0.51904 0.4926,-0.99353 1.85388,-1.52107 3.20054,-1.24031 1.24358,0.25926 1.99033,1.24645 1.90723,2.5213 -0.0396,0.60803 -0.20723,0.98218 -0.63067,1.4081 -0.30874,0.31053 -0.34087,0.36165 -0.25721,0.40907 0.20998,0.11904 0.58669,0.49449 0.71918,0.71685 0.48678,0.81701 0.48738,2.02935 10e-4,2.845 -0.18465,0.30994 -0.67248,0.75734 -1.00792,0.92442 -0.57157,0.28468 -1.36788,0.41058 -1.97883,0.31284 z m 5.28684,-0.17936 c -0.0145,-0.0372 -0.0199,-2.04298 -0.0126,-4.45717 l 0.0142,-4.38943 1.9422,-0.0146 c 1.55934,-0.0111 2.02091,0.001 2.34148,0.0673 1.17094,0.23925 1.95747,1.04645 2.21875,2.2771 0.12113,0.57075 0.17106,2.57153 0.0876,3.5132 -0.12546,1.41544 -0.6112,2.25435 -1.57647,2.72269 -0.63322,0.30723 -1.00071,0.34826 -3.11938,0.34826 -1.44532,0 -1.87605,-0.0154 -1.89635,-0.0677 z m 3.88632,-1.41738 c 0.52723,-0.1932 0.83186,-0.50381 1.01919,-1.03922 0.12576,-0.35931 0.19126,-1.70847 0.13663,-2.81343 -0.052,-1.05257 -0.15186,-1.37494 -0.54586,-1.76249 -0.39839,-0.39184 -0.61255,-0.44625 -1.86336,-0.47339 l -1.06056,-0.0229 v 3.12746 3.12747 l 1.03301,-0.0263 c 0.77911,-0.0197 1.09396,-0.0486 1.28095,-0.11706 z m -8.92523,-9.49077 c -0.88383,-0.19447 -1.65534,-0.76523 -2.04784,-1.51503 -0.38255,-0.73081 -0.48398,-1.36232 -0.48553,-3.02326 -0.001,-1.26085 0.0716,-1.94287 0.26741,-2.50658 0.47816,-1.37638 1.58123,-2.08536 3.24097,-2.08313 1.07552,10e-4 1.86823,0.29166 2.49993,0.91521 0.35899,0.35437 0.69729,0.90786 0.64179,1.05009 -0.0227,0.0582 -0.2735,0.17717 -1.20113,0.56967 -0.0207,0.009 -0.15134,-0.14079 -0.29033,-0.33244 -0.41737,-0.57531 -0.96118,-0.84856 -1.68867,-0.84856 -0.52586,0 -0.87524,0.11879 -1.20395,0.40951 -0.33072,0.29249 -0.53395,0.6785 -0.61174,1.16199 -0.0741,0.46028 -0.0732,2.90727 10e-4,3.3581 0.10943,0.66353 0.48253,1.1878 1.00976,1.419 0.2277,0.0998 0.38128,0.12363 0.80479,0.12465 0.44929,0.001 0.56629,-0.0185 0.82641,-0.13846 0.43315,-0.19985 0.63434,-0.38793 0.82382,-0.77013 0.12197,-0.24593 0.18141,-0.46995 0.22312,-0.84025 0.0312,-0.27771 0.0426,-0.52766 0.0251,-0.55546 -0.0175,-0.0278 -0.38675,-0.0505 -0.82062,-0.0505 -0.60788,0 -0.80351,-0.0173 -0.8527,-0.0756 -0.0418,-0.0495 -0.0584,-0.26955 -0.048,-0.63675 l 0.0158,-0.56109 1.6115,-0.0146 1.61148,-0.0146 v 0.94207 c 0,1.04565 -0.0875,1.69127 -0.29822,2.20148 -0.34093,0.82524 -0.98612,1.4119 -1.88747,1.71621 -0.36118,0.12188 -0.54318,0.14814 -1.11995,0.16121 -0.4564,0.01 -0.80944,-0.0111 -1.04678,-0.0632 z m 6.23905,-0.0697 c -0.0548,-0.0342 -0.0663,-0.9671 -0.0552,-4.48344 l 0.0141,-4.44024 h 2.09356 c 2.3102,0 2.39119,0.01 3.06932,0.36346 1.55407,0.81095 1.80648,3.06316 0.47522,4.24043 -0.15003,0.13265 -0.40813,0.30639 -0.57353,0.38597 l -0.30072,0.14472 0.18613,0.33191 c 0.58826,1.04899 1.74946,3.35553 1.72319,3.42286 -0.025,0.064 -0.17275,0.0791 -0.77188,0.0791 -0.40755,0 -0.78128,-0.0152 -0.8305,-0.0338 -0.0493,-0.0186 -0.49591,-0.84835 -0.99263,-1.84395 l -0.90311,-1.81016 -0.81622,0.0149 -0.8162,0.0151 -0.0145,1.78555 c -0.0113,1.34568 -0.0312,1.79604 -0.0826,1.82811 -0.0893,0.0559 -1.31494,0.0553 -1.40446,-6.7e-4 z m 4.08911,-5.08387 c 0.91378,-0.30626 1.13575,-1.5663 0.38336,-2.17632 -0.32735,-0.2654 -0.58577,-0.30873 -1.8414,-0.30873 h -1.12942 l -0.0148,1.28703 -0.0147,1.28703 h 1.17569 c 0.94591,0 1.22762,-0.0174 1.4413,-0.0891 z m 4.23008,5.08387 c -0.0548,-0.0342 -0.0663,-0.9671 -0.0552,-4.48344 l 0.0141,-4.44024 h 2.94754 2.94751 l 0.0156,0.66322 0.0154,0.66321 -2.19166,0.0146 -2.19169,0.0146 v 1.1922 1.19218 l 1.86111,0.0145 1.8611,0.0146 -0.0154,0.66309 -0.0156,0.66311 -1.85942,0.0146 -1.85943,0.0145 v 1.21795 1.21794 l 2.19,0.0146 2.18997,0.0146 0.0157,0.64598 c 0.0113,0.48036 -0.002,0.65727 -0.0552,0.69009 -0.0914,0.057 -5.72323,0.0581 -5.81457,9.2e-4 z m 7.65807,0 c -0.0548,-0.0342 -0.0663,-0.9671 -0.0552,-4.48344 l 0.0141,-4.44024 h 2.94752 2.94753 l 0.0156,0.66322 0.0154,0.66321 -2.19167,0.0146 -2.19168,0.0146 v 1.1922 1.19218 l 1.86112,0.0145 1.8611,0.0146 -0.0155,0.66309 -0.0154,0.66311 -1.85942,0.0146 -1.85943,0.0145 v 1.21795 1.21794 l 2.18999,0.0146 2.18999,0.0146 0.0157,0.64598 c 0.0114,0.48036 -0.002,0.65727 -0.0552,0.69009 -0.0914,0.057 -5.72322,0.0581 -5.81456,9.2e-4 z m 7.65806,0 c -0.0548,-0.0342 -0.0663,-0.9671 -0.0552,-4.48344 l 0.0141,-4.44024 0.69718,-0.0152 c 0.67684,-0.0147 0.70016,-0.0111 0.79887,0.11336 0.056,0.0707 0.91982,1.49708 1.91977,3.16989 0.99995,1.67279 1.83649,3.04228 1.85897,3.04328 0.0225,10e-4 0.0473,-1.41864 0.0552,-3.15478 l 0.0142,-3.15659 h 0.68867 0.68868 l 0.0141,4.41059 c 0.0102,3.21352 -0.002,4.43058 -0.048,4.48427 -0.0454,0.0538 -0.22056,0.0734 -0.64767,0.073 -0.32204,-4.4e-4 -0.63584,-0.0145 -0.69733,-0.0302 -0.0774,-0.0205 -0.69286,-0.9927 -2.00602,-3.16941 -1.04181,-1.72692 -1.91501,-3.13985 -1.94044,-3.13985 -0.0254,0 -0.0462,1.41176 -0.0462,3.13725 0,2.81077 -0.0102,3.14067 -0.0872,3.17014 -0.12827,0.0485 -1.14088,0.0384 -1.22166,-0.0111 z m -32.38272,-11.07618 c -0.0148,-0.0381 -0.0205,-2.05675 -0.0126,-4.48584 l 0.0142,-4.41653 2.03847,5.8e-4 c 1.75557,4.8e-4 2.08626,0.0131 2.38274,0.0936 0.43089,0.11645 0.73319,0.26482 1.09749,0.5383 1.12042,0.84111 1.31749,2.68285 0.41219,3.85191 -0.32014,0.41339 -0.73453,0.69575 -1.303,0.88785 -0.419,0.14166 -0.50599,0.15043 -1.763,0.17913 l -1.32225,0.0302 -0.0275,1.6799 -0.0275,1.67991 -0.73111,0.0152 c -0.55442,0.0111 -0.73759,-10e-4 -0.758,-0.0543 z m 4.05404,-4.83913 c 0.35067,-0.12175 0.57404,-0.31354 0.73502,-0.63127 0.29317,-0.57868 0.13987,-1.39971 -0.3267,-1.74974 -0.35716,-0.26797 -0.55088,-0.30037 -1.79566,-0.30037 h -1.15005 v 1.38187 1.38186 h 1.15005 c 0.88804,0 1.20411,-0.0188 1.38734,-0.0823 z m 3.98969,4.83913 c -0.0148,-0.0381 -0.0205,-2.05675 -0.0126,-4.48584 l 0.0142,-4.41653 1.87208,-0.0146 c 2.16166,-0.0164 2.56127,0.0253 3.19738,0.33455 1.90999,0.92848 1.91091,3.74765 10e-4,4.66651 l -0.30592,0.14721 0.15838,0.27802 c 0.50876,0.89307 1.77558,3.41105 1.74962,3.47759 -0.0413,0.10596 -1.50771,0.11608 -1.64377,0.0111 -0.0485,-0.0372 -0.47856,-0.85418 -0.95599,-1.81539 l -0.86805,-1.74764 h -0.84435 -0.84435 l -0.0145,1.80183 -0.0145,1.80184 -0.7311,0.0152 c -0.55443,0.0111 -0.73761,-10e-4 -0.758,-0.0543 z m 4.11995,-5.05087 c 0.5526,-0.19398 0.83338,-0.59696 0.83338,-1.19616 0,-0.58141 -0.22192,-0.93083 -0.73708,-1.16055 -0.22543,-0.10053 -0.35916,-0.11065 -1.47376,-0.11176 l -1.22585,-10e-4 v 1.2735 1.27346 l 1.1983,-0.002 c 0.85606,-10e-4 1.25733,-0.0231 1.40501,-0.0749 z m 4.19922,5.05087 c -0.0148,-0.0381 -0.0206,-2.05675 -0.0126,-4.48584 l 0.0142,-4.41653 h 0.74377 0.74377 v 4.47072 4.47072 l -0.73112,0.0152 c -0.55442,0.0111 -0.73761,-10e-4 -0.758,-0.0543 z m 3.62367,0.0212 c -0.0548,-0.0342 -0.0663,-0.96709 -0.0552,-4.48344 l 0.0141,-4.44024 0.67673,-0.0153 c 0.37219,-0.009 0.71292,0.005 0.75715,0.0291 0.0443,0.0243 0.92039,1.44453 1.947,3.15599 1.02662,1.71144 1.89432,3.12081 1.92823,3.13193 0.045,0.0147 0.0655,-0.83881 0.076,-3.14077 l 0.0142,-3.16097 h 0.66113 0.66111 v 4.47072 4.47073 l -0.66678,0.0152 c -0.57473,0.0131 -0.68218,10e-4 -0.77844,-0.0813 -0.0614,-0.053 -0.92442,-1.44986 -1.91781,-3.10402 -0.99339,-1.65416 -1.83933,-3.04328 -1.87985,-3.08692 -0.0615,-0.0664 -0.0737,0.43203 -0.0737,3.03738 0,2.35186 -0.0162,3.13268 -0.0662,3.18175 -0.0753,0.074 -1.18392,0.0912 -1.29779,0.0202 z m 10.70053,-0.0228 c -0.0142,-0.0373 -0.0321,-1.73816 -0.0396,-3.77981 l -0.014,-3.71205 -1.23527,-0.0146 c -0.79806,-0.009 -1.26119,-0.0358 -1.30849,-0.0743 -0.10489,-0.0857 -0.10341,-1.20076 10e-4,-1.28666 0.0544,-0.0444 0.98334,-0.0575 3.3745,-0.0473 l 3.29946,0.0146 0.0157,0.64598 c 0.0113,0.48036 -0.002,0.6573 -0.0552,0.69011 -0.0389,0.0243 -0.62233,0.0445 -1.29654,0.0449 l -1.22584,8.3e-4 v 3.76046 c 0,3.37904 -0.008,3.76377 -0.0871,3.79334 -0.0479,0.018 -0.38341,0.0328 -0.7455,0.0328 -0.47614,0 -0.66551,-0.0188 -0.68425,-0.0677 z"
       id="path3635" />
    <path
       style="fill:#008000;fill-opacity:1;stroke-width:1.42472"
       d="m 853.80844,517.94479 c -1.31421,-0.1787 -2.05635,-0.4105 -3.38819,-1.05826 -2.61426,-1.27148 -4.66979,-3.66073 -5.6525,-6.57021 l -0.41685,-1.23417 -0.0426,-11.09312 -0.0426,-11.09314 11.02496,0.11053 c 10.2072,0.10239 11.11473,0.13293 12.23535,0.41186 3.54076,0.88131 6.59317,3.72995 7.7738,7.25484 l 0.4341,1.29606 0.0426,11.06886 0.0426,11.06885 -10.5529,-0.0196 c -5.80411,-0.0111 -10.96005,-0.0749 -11.45768,-0.14259 z m -2.30755,-8.66209 c 0.13198,-0.13753 0.17764,-1.70303 0.17764,-6.0901 v -5.90497 l 0.34992,-0.23895 c 0.30692,-0.20957 1.31748,-0.23371 8.2213,-0.19639 6.80549,0.0368 7.89037,0.0739 8.01167,0.27396 0.0772,0.12727 0.14133,0.86859 0.14258,1.64738 10e-4,1.0839 -0.0523,1.47282 -0.23035,1.6584 -0.20389,0.21248 -0.98033,0.24243 -6.2862,0.24243 -5.90207,0 -6.05754,0.007 -6.21203,0.30853 -0.11261,0.21922 -0.11261,0.39786 0,0.61709 0.15453,0.30091 0.30996,0.30853 6.28698,0.30853 3.68538,0 6.28216,-0.0608 6.51392,-0.1527 0.21196,-0.084 0.54937,-0.33709 0.7498,-0.56247 0.34884,-0.39226 0.36441,-0.49661 0.36441,-2.44103 0,-2.01714 -0.002,-2.034 -0.40709,-2.42693 -0.2239,-0.21763 -0.5526,-0.4736 -0.73044,-0.56881 -0.22739,-0.12175 -2.72221,-0.17313 -8.40822,-0.17313 -8.78819,0 -8.57229,-0.0202 -9.24138,0.86622 -0.30169,0.39969 -0.30913,0.55691 -0.30913,6.52869 0,6.31422 0.016,6.48938 0.59213,6.48938 0.13026,0 0.31679,-0.0833 0.41449,-0.18513 z m 17.20629,-0.0488 c 0.7282,-0.39243 0.88335,-0.91857 0.88335,-2.99555 0,-1.82436 -0.007,-1.86499 -0.42315,-2.35 -0.36941,-0.43085 -0.55275,-0.50854 -1.44333,-0.61159 -1.39811,-0.16178 -9.74626,-0.15181 -10.5641,0.0127 -0.94833,0.19066 -1.48561,0.85185 -1.48124,1.82284 0.003,0.82704 0.26513,1.26052 0.98858,1.63932 0.40561,0.21237 1.15215,0.24805 5.18988,0.24805 5.16663,0 5.35318,-0.0299 5.1618,-0.82448 l -0.0987,-0.40967 -4.62322,-0.002 c -2.54277,-0.001 -4.77088,-0.0434 -4.95139,-0.0937 -0.49902,-0.13942 -0.59414,-0.67391 -0.18184,-1.02184 0.32184,-0.2716 0.64521,-0.28565 5.54752,-0.24098 4.14328,0.0377 5.25568,0.0907 5.45033,0.25915 0.19655,0.17017 0.24456,0.50481 0.24456,1.70468 0,0.9555 -0.0639,1.55961 -0.17763,1.67808 -0.13292,0.13853 -1.8612,0.18513 -6.86542,0.18513 -6.04129,0 -6.70741,-0.0247 -6.89094,-0.25521 -0.31397,-0.39439 -0.29644,-8.17954 0.0188,-8.38721 0.13034,-0.0858 2.70594,-0.14722 6.23628,-0.1486 6.48556,-0.002 6.43083,0.005 6.32089,-0.8038 l -0.0484,-0.35567 -6.29141,-0.0458 c -5.65268,-0.0411 -6.33945,-0.0195 -6.76471,0.21275 -0.8794,0.48036 -0.93301,0.79711 -0.93301,5.51392 v 4.24583 l 0.39502,0.48924 c 0.21727,0.26908 0.53369,0.54769 0.70316,0.61913 0.16948,0.0714 3.42569,0.13432 7.23604,0.13969 5.91578,0.009 6.99134,-0.0244 7.36214,-0.22423 z"
       id="path4324" />
    <path
       style="fill:#008000;fill-opacity:1;stroke-width:0.15112"
       d="m 885.83716,517.86629 c -0.0611,-0.0656 -0.11102,-2.05154 -0.11102,-4.41315 v -4.29385 l 2.10948,0.004 c 2.3736,0.004 2.99187,0.18076 3.70126,1.05933 0.55005,0.68124 0.70106,1.3828 0.70106,3.25682 0,2.4759 -0.35263,3.4085 -1.52815,4.04157 -0.52124,0.28071 -0.9374,0.3424 -2.68914,0.39865 -1.13986,0.0366 -2.12242,0.0128 -2.18348,-0.0528 z m 3.95481,-1.36703 c 0.27694,-0.12064 0.59912,-0.41564 0.71594,-0.65565 0.28507,-0.58571 0.42065,-2.36885 0.27255,-3.58474 -0.10171,-0.83507 -0.19352,-1.05665 -0.59125,-1.427 -0.43894,-0.40871 -0.55597,-0.43842 -1.72679,-0.43842 h -1.25595 v 3.16253 3.16253 h 1.04099 c 0.57254,0 1.26756,-0.0987 1.54451,-0.21925 z"
       id="path4464" />
    <path
       style="fill:#008000;fill-opacity:1;stroke-width:0.15112"
       d="m 879.91444,517.89411 c -0.60119,-0.23185 -0.92322,-0.4615 -1.32395,-0.94419 -0.41772,-0.50314 -0.33214,-0.82158 0.25146,-0.93567 0.45087,-0.0882 0.57282,-0.0395 0.94759,0.37867 0.36189,0.40373 0.53918,0.47986 1.11763,0.47986 0.91361,0 1.4142,-0.48595 1.4142,-1.37281 0,-0.84667 -0.47076,-1.39575 -1.29551,-1.51104 -0.59491,-0.0831 -0.62891,-0.11521 -0.62891,-0.59398 0,-0.4701 0.042,-0.51346 0.59154,-0.61021 1.27067,-0.22373 1.66311,-1.89159 0.58213,-2.47413 -0.67875,-0.36579 -1.16098,-0.28288 -1.67808,0.2885 -0.44199,0.48839 -0.49315,0.50581 -1.01956,0.34711 l -0.55422,-0.1671 0.27751,-0.5361 c 0.84297,-1.62846 3.79712,-1.63 4.63472,-0.002 0.47964,0.93201 0.36882,1.55705 -0.49862,2.81231 -0.15706,0.22729 -0.13237,0.30701 0.16154,0.52154 0.66529,0.48562 0.99249,2.07636 0.59323,2.88421 -0.24535,0.49648 -0.74341,1.03215 -1.17962,1.26873 -0.60614,0.32874 -1.76378,0.40938 -2.39308,0.1667 z"
       id="path4466" />
    <path
       style="fill:#008000;fill-opacity:1;stroke-width:0.15112"
       d="m 880.32293,506.81338 c -0.74725,-0.27221 -1.3593,-0.84956 -1.71985,-1.62234 -0.30033,-0.64372 -0.3444,-0.97124 -0.34823,-2.58821 -0.006,-2.5843 0.38545,-3.54461 1.73872,-4.26408 0.76328,-0.4058 2.28852,-0.4334 3.17711,-0.0575 0.57839,0.24467 1.51923,1.14663 1.51923,1.45644 0,0.0728 -0.23844,0.23151 -0.52987,0.35265 -0.51839,0.21547 -0.54019,0.20945 -1.00814,-0.2782 -0.9653,-1.00598 -2.66255,-0.79643 -3.23584,0.39949 -0.19807,0.41323 -0.25887,0.92842 -0.25904,2.19523 -3.8e-4,2.62961 0.44529,3.35849 2.05351,3.35849 1.0041,0 1.56423,-0.48801 1.78358,-1.5539 0.0878,-0.42643 0.15956,-0.80664 0.15956,-0.84488 0,-0.0382 -0.39968,-0.0696 -0.88819,-0.0696 h -0.8882 v -0.53995 -0.53994 h 1.09175 c 0.60045,0 1.31054,-0.0456 1.57796,-0.10139 l 0.48623,-0.1014 -0.0904,1.33484 c -0.10375,1.53308 -0.37613,2.24511 -1.09474,2.8624 -0.86056,0.73923 -2.41789,1.00504 -3.52516,0.60168 z"
       id="path4468" />
    <path
       style="fill:#008000;fill-opacity:1;stroke-width:0.15112"
       d="m 886.9104,502.4298 v -4.41545 l 2.25751,0.0671 c 2.47427,0.0735 2.87315,0.19088 3.56628,1.04932 0.7717,0.95577 0.69734,2.34541 -0.1738,3.24779 -0.29856,0.30928 -0.64277,0.59816 -0.76489,0.64198 -0.17554,0.063 -0.025,0.47373 0.71859,1.9608 l 0.94063,1.88116 -0.77542,-0.0472 -0.77541,-0.0473 -0.88153,-1.73553 -0.88154,-1.73554 h -0.87504 -0.87505 l -10e-4,0.96419 c -7.2e-4,0.5303 -0.0433,1.32865 -0.0947,1.77411 l -0.0933,0.80989 h -0.64553 -0.64553 z m 4.61885,-0.79194 c 0.45831,-0.47804 0.45828,-1.44883 -6e-5,-1.92682 -0.28996,-0.30239 -0.51697,-0.35487 -1.73601,-0.40133 l -1.40245,-0.0534 -0.002,1.05622 c -10e-4,0.58091 -0.0439,1.21921 -0.0951,1.41846 l -0.0931,0.36224 1.49758,-0.0537 c 1.31818,-0.0472 1.53753,-0.0953 1.8311,-0.40159 z"
       id="path4470" />
    <path
       style="fill:#008000;fill-opacity:1;stroke-width:0.15112"
       d="m 895.29894,506.7424 c -0.0543,-0.0566 -0.0987,-2.03507 -0.0987,-4.39669 v -4.29384 h 2.88665 2.88665 v 0.61708 0.61707 h -2.14649 -2.14648 v 1.3113 1.31129 h 1.85041 1.85042 v 0.53995 c 0,0.53223 -0.009,0.53995 -0.62915,0.54086 -0.34602,5.1e-4 -1.17871,0.0455 -1.85041,0.10004 l -1.22127,0.0991 v 1.2113 1.21128 h 2.14648 2.14649 v 0.61707 0.61709 h -2.78797 c -1.53338,0 -2.83236,-0.0463 -2.88663,-0.10288 z"
       id="path4472" />
    <path
       style="fill:#008000;fill-opacity:1;stroke-width:0.15112"
       d="m 902.89798,502.44856 v -4.39669 h 2.88664 2.88665 v 0.61708 0.61707 h -2.14649 -2.14647 v 1.3113 1.31129 h 1.85041 1.85042 v 0.52015 0.52014 l -1.92444,0.1109 -1.92443,0.11089 v 1.22018 1.22018 h 2.2205 2.2205 v 0.61707 0.61709 h -2.88665 -2.88664 z"
       id="path4474" />
    <path
       style="fill:#008000;fill-opacity:1;stroke-width:0.15112"
       d="m 910.59569,502.44856 v -4.39669 l 0.62914,4.5e-4 0.62914,4.5e-4 1.91306,3.16208 c 1.05219,1.73915 1.96814,3.16208 2.03546,3.16208 0.0673,0 0.12239,-1.42314 0.12239,-3.16254 v -3.16252 h 0.59213 0.59213 v 4.39669 4.39668 h -0.64675 -0.64676 l -1.88185,-3.08539 c -1.03503,-1.69697 -1.94306,-3.08539 -2.01784,-3.08539 -0.0781,0 -0.13597,1.31364 -0.13597,3.08539 v 3.08539 h -0.59215 -0.59213 z"
       id="path4476" />
    <path
       style="fill:#008000;fill-opacity:1;stroke-width:0.15112"
       d="m 908.91698,493.46234 c -0.0531,-1.33636 -0.0969,-3.03718 -0.0972,-3.77961 l -5e-4,-1.34986 h -1.02413 c -1.344,0 -1.49244,-0.0707 -1.49244,-0.71072 v -0.52343 h 3.25674 3.25672 v 0.52343 c 0,0.64004 -0.14842,0.71072 -1.49244,0.71072 h -1.02412 v 3.77961 3.77961 h -0.64297 -0.64297 z"
       id="path4478" />
    <path
       style="fill:#008000;fill-opacity:1;stroke-width:0.15112"
       d="m 904.88774,491.4954 c 8e-5,-2.4606 0.0205,-3.44562 0.0454,-2.18891 0.0249,1.2567 0.0249,3.26993 -1.3e-4,4.47383 -0.025,1.20389 -0.0454,0.17568 -0.0453,-2.28492 z"
       id="path4480" />
    <path
       style="fill:#008000;fill-opacity:1;stroke-width:0.15112"
       d="m 898.16092,491.48695 v -4.40515 l 0.70315,0.047 0.70315,0.047 1.74748,2.85399 c 0.9611,1.56969 1.80544,2.95754 1.87631,3.08411 0.0708,0.12656 0.16258,0.19496 0.20381,0.15201 0.0412,-0.0429 0.12273,-1.44817 0.18113,-3.12268 l 0.10614,-3.04456 h 0.57013 0.57013 v 4.40513 4.40514 l -0.68299,-0.047 -0.68299,-0.047 -1.82905,-2.99584 c -1.00597,-1.6477 -1.89769,-3.06737 -1.9816,-3.15482 -0.10466,-0.10917 -0.15319,0.73349 -0.15457,2.68729 -10e-4,1.56546 -0.0422,3.00247 -0.0913,3.19339 -0.0731,0.28441 -0.19312,0.34711 -0.66414,0.34711 h -0.57485 z"
       id="path4482" />
    <path
       style="fill:#008000;fill-opacity:1;stroke-width:0.15112"
       d="m 894.60813,491.4954 v -4.39668 h 0.66614 0.66615 v 4.39668 4.39669 h -0.66615 -0.66614 z"
       id="path4484" />
    <path
       style="fill:#008000;fill-opacity:1;stroke-width:0.15112"
       d="m 886.31827,491.4954 v -4.39668 h 2.13685 c 2.33252,0 2.73787,0.0939 3.43615,0.79566 1.21596,1.22209 0.87226,3.07343 -0.75459,4.06452 -0.23117,0.14084 -0.20461,0.24642 0.29099,1.15704 0.29996,0.55112 0.74134,1.40495 0.98086,1.89738 l 0.43548,0.89534 -0.77961,-0.0469 -0.77962,-0.0469 -0.8919,-1.77411 -0.8919,-1.7741 -0.9252,-0.0459 -0.92521,-0.0459 v 1.85861 1.8586 h -0.66616 -0.66614 z m 4.52173,-0.9186 c 0.52091,-0.54286 0.50784,-1.48602 -0.0267,-1.92419 -0.33154,-0.27178 -0.59802,-0.31974 -1.7764,-0.31974 h -1.38635 v 1.31129 1.3113 h 1.41304 c 1.30289,0 1.44137,-0.0295 1.7764,-0.37866 z"
       id="path4486" />
    <path
       style="fill:#008000;fill-opacity:1;stroke-width:0.15112"
       d="m 878.17645,491.4954 v -4.39668 h 2.17376 c 1.90102,0 2.25379,0.0403 2.81159,0.32177 0.96471,0.48668 1.30606,1.08801 1.30606,2.3008 0,1.85086 -0.88437,2.57416 -3.33784,2.72994 l -1.47324,0.0935 v 1.67366 1.67367 h -0.74016 -0.74017 z m 4.33159,-0.48353 c 0.40473,-0.1215 0.74252,-0.93741 0.63511,-1.53403 -0.15891,-0.88282 -0.65669,-1.14497 -2.17404,-1.14497 h -1.31233 v 1.48381 1.4838 l 1.29529,-0.10522 c 0.71241,-0.0579 1.4126,-0.14039 1.55597,-0.18344 z"
       id="path4488" />
    <path
       style="fill:#008000;fill-opacity:1;stroke-width:0.0066786"
       d="m 875.77209,505.10884 c -8e-5,-0.12287 -0.005,-1.24494 -0.009,-2.49363 -0.006,-1.24868 -0.009,-2.39843 -0.009,-2.55498 l -1.5e-4,-0.28464 h 0.0546 0.0546 l 0.005,0.71076 c 0.002,0.39091 0.007,1.64113 0.009,2.77827 l 0.005,2.0675 h -0.0534 -0.0534 z"
       id="path5261" />
    <path
       style="fill:#008000;fill-opacity:1;stroke-width:0.0066786"
       d="m 875.783,507.85983 c -0.002,-0.70965 -0.006,-1.5687 -0.008,-1.909 l -0.005,-0.61871 h 0.0532 0.0534 v 1.90899 1.90899 h -0.0448 -0.0448 z"
       id="path5263" />
    <path
       style="fill:#008000;fill-opacity:1;stroke-width:0.00944496"
       d="m 875.79986,511.70715 c -0.003,-1.21306 -0.008,-2.28259 -0.0113,-2.37671 l -0.006,-0.17115 h 0.0469 0.0469 v 2.37671 2.37672 h -0.0359 -0.0359 z"
       id="path5265" />
    <path
       style="fill:#008000;fill-opacity:1;stroke-width:0.00944496"
       d="m 869.37542,518.14792 -0.43716,-0.002 v -0.0233 -0.0233 l 3.44251,0.006 3.4425,0.006 -0.006,-1.86001 c -0.003,-1.02301 -0.008,-1.9674 -0.0102,-2.09865 l -0.006,-0.23864 h 0.0377 0.0376 v 2.12121 2.12122 l -3.03236,-0.002 c -1.6678,-10e-4 -3.22909,-0.004 -3.46952,-0.005 z"
       id="path5267" />
    <path
       style="fill:#008000;fill-opacity:1;stroke-width:0.00944496"
       d="m 875.75358,499.67893 c -0.009,-0.14836 -0.0139,-3.54366 -0.006,-3.50648 0.005,0.019 0.0227,0.14047 0.041,0.26998 0.0277,0.1974 0.0345,0.27911 0.042,0.50545 0.0114,0.33798 0.0275,1.73672 0.0276,2.35502 l 6e-5,0.46522 h -0.0501 -0.0501 z"
       id="path5269" />
    <path
       style="fill:#008000;fill-opacity:1;stroke-width:0.00944496"
       d="m 878.18631,503.81046 c -0.0417,-0.5239 -0.0529,-1.59643 -0.0233,-2.23931 0.0236,-0.51363 0.0726,-0.92204 0.14863,-1.23898 0.19291,-0.80427 0.61109,-1.45025 1.20358,-1.85919 0.32896,-0.22705 0.70773,-0.38554 1.14406,-0.47868 0.18765,-0.0401 0.17866,-0.0413 0.17526,0.0254 l -0.002,0.0546 -0.12,0.0228 c -0.32913,0.0627 -0.5738,0.15182 -0.84893,0.30944 -0.56705,0.32484 -0.9301,0.69076 -1.16692,1.17612 -0.26124,0.53538 -0.38886,1.19553 -0.43245,2.23689 -0.0102,0.25514 -0.006,1.73947 0.007,1.96184 l 0.006,0.10362 h -0.0418 -0.0417 z"
       id="path5271" />
    <path
       style="fill:#008000;fill-opacity:1;stroke-width:0.00944496"
       d="m 875.5083,495.28136 c -0.0833,-0.25009 -0.18677,-0.55666 -0.22978,-0.68128 -0.3883,-1.12493 -0.96208,-2.18614 -1.7008,-3.14566 l -0.0427,-0.0554 h 0.0866 0.0866 l 0.0823,0.11176 c 0.39497,0.53642 0.7069,1.0537 0.99948,1.65746 0.3141,0.64818 0.5557,1.29954 0.74387,2.00551 0.0428,0.16053 0.13209,0.54472 0.1288,0.55406 -0.001,0.005 -0.0712,-0.19639 -0.1545,-0.44647 z"
       id="path5273" />
    <path
       style="fill:#008000;fill-opacity:1;stroke-width:0.00944496"
       d="m 873.41951,491.25597 c -0.20272,-0.25507 -0.35421,-0.42625 -0.65502,-0.74022 -0.38071,-0.39736 -0.65724,-0.65477 -1.04135,-0.96934 -0.51002,-0.41768 -1.15042,-0.84941 -1.71627,-1.15703 l -0.13877,-0.0755 0.12272,-1.8e-4 0.12274,-1.6e-4 0.12244,0.0686 c 1.24419,0.69731 2.26417,1.54801 3.19508,2.66484 0.072,0.0863 0.27198,0.34199 0.27198,0.34764 0,0.002 -0.0385,0.004 -0.0856,0.004 l -0.0856,-8e-4 -0.11238,-0.14143 z"
       id="path5275" />
    <path
       style="fill:#008000;fill-opacity:1;stroke-width:0.00944496"
       d="m 869.73856,488.24888 c -0.65054,-0.34722 -1.57239,-0.68803 -2.33815,-0.86441 -0.99409,-0.22897 -2.02843,-0.26956 -8.91004,-0.34955 l -0.56207,-0.006 v -0.0387 -0.0387 l 2.46799,0.006 c 3.78538,0.01 5.04472,0.0247 5.45641,0.0646 0.88448,0.0858 1.74713,0.27219 2.57207,0.55571 0.4637,0.15936 0.80897,0.30295 1.34849,0.56079 l 0.0532,0.0254 v 0.0652 c 0,0.0359 -10e-4,0.065 -0.002,0.0648 -0.001,-2.7e-4 -0.0398,-0.0205 -0.0856,-0.0449 z"
       id="path5277" />
    <path
       style="fill:#008000;fill-opacity:1;stroke-width:0.00944496"
       d="m 869.84265,488.30317 c -0.0128,-0.007 -0.0162,-0.023 -0.0162,-0.072 0,-0.0342 0.003,-0.0619 0.007,-0.0617 0.003,2.8e-4 0.0673,0.0326 0.14109,0.0718 l 0.13417,0.0713 -0.12491,2.1e-4 c -0.0687,1.1e-4 -0.1322,-0.004 -0.1411,-0.01 z"
       id="path5279" />
    <path
       style="fill:#008000;fill-opacity:1;stroke-width:0.00944496"
       d="m 857.03548,487.02092 c -0.34603,-0.004 -1.10377,-0.0123 -1.68388,-0.018 -0.5801,-0.006 -1.43985,-0.015 -1.91055,-0.0201 -0.4707,-0.005 -0.97968,-0.009 -1.13107,-0.01 -0.23845,-1e-4 -0.27525,-0.002 -0.27525,-0.0146 0,-0.0128 0.12464,-0.0144 1.06631,-0.0144 0.58647,0 1.91251,0.002 2.94678,0.006 l 1.88048,0.006 v 0.037 0.037 l -0.13184,-10e-4 c -0.0725,-8.9e-4 -0.41496,-0.005 -0.76098,-0.009 z"
       id="path5281" />
    <path
       style="fill:#008000;fill-opacity:1;stroke-width:0.00944496"
       d="m 844.20749,488.85835 v -1.91392 h 0.0262 0.0262 l 0.006,1.16427 c 0.003,0.64033 0.006,1.5016 0.006,1.9139 l 10e-6,0.74965 h -0.0323 -0.0324 z"
       id="path5283" />
    <path
       style="fill:#008000;fill-opacity:1;stroke-width:0.00944496"
       d="m 844.20749,492.31496 v -1.54271 h 0.0314 0.0314 l 0.006,0.14704 c 0.003,0.0809 0.007,0.77509 0.009,1.54271 l 0.003,1.39566 h -0.0401 -0.0401 z"
       id="path5285" />
    <path
       style="fill:#008000;fill-opacity:1;stroke-width:0.00944496"
       d="m 844.20749,495.78603 v -1.92837 h 0.0401 0.0401 l 0.006,1.41012 c 0.003,0.77557 0.006,1.64334 0.006,1.92837 v 0.51825 h -0.0463 -0.0463 z"
       id="path5287" />
    <path
       style="fill:#008000;fill-opacity:1;stroke-width:0.00944496"
       d="m 844.20749,499.64278 v -1.92838 h 0.0452 0.0452 l 0.006,0.4363 c 0.003,0.23996 0.008,1.10773 0.0102,1.92837 l 0.005,1.49208 h -0.0556 -0.0556 z"
       id="path5289" />
    <path
       style="fill:#008000;fill-opacity:1;stroke-width:0.00944496"
       d="m 844.22268,505.00123 c -0.003,-0.6589 -0.008,-1.70021 -0.0102,-2.31404 l -0.005,-1.11604 h 0.0539 0.0539 l 0.006,1.39565 c 0.003,0.76761 0.008,1.80894 0.0113,2.31405 l 0.006,0.9184 h -0.0553 -0.0553 z"
       id="path5291" />
    <path
       style="fill:#008000;fill-opacity:1;stroke-width:0.00944496"
       d="m 844.34048,507.20681 c 2e-5,-0.0584 0.001,-0.0809 0.003,-0.0502 0.002,0.0307 0.002,0.0785 -3e-5,0.10609 -0.002,0.0276 -0.003,0.002 -0.003,-0.0558 z"
       id="path5293" />
    <path
       style="fill:#008000;fill-opacity:1;stroke-width:0.00944496"
       d="m 844.31979,508.69895 c -0.061,-0.4294 -0.0708,-0.6068 -0.0795,-1.42946 -0.002,-0.26781 -0.008,-0.61817 -0.0102,-0.77858 l -0.006,-0.29166 h 0.0547 0.0547 l 0.007,1.31714 c 0.003,0.72444 0.005,1.31889 0.003,1.321 -0.002,0.002 -0.0128,-0.0602 -0.0238,-0.13844 z"
       id="path5295" />
    <path
       style="fill:#008000;fill-opacity:1;stroke-width:0.00944496"
       d="m 845.98184,513.11004 c -0.0384,-0.0528 -0.22183,-0.35098 -0.31001,-0.50378 -0.53582,-0.92835 -0.93499,-1.93807 -1.17819,-2.98027 -0.0256,-0.10954 -0.0453,-0.20583 -0.0437,-0.2139 10e-4,-0.007 0.0876,0.23657 0.19149,0.54361 0.26382,0.78035 0.39557,1.12019 0.62113,1.60213 0.22484,0.48041 0.44671,0.8835 0.73899,1.34251 0.0793,0.12462 0.14566,0.22983 0.14736,0.2338 0.002,0.004 -0.0301,0.007 -0.0706,0.007 -0.0723,0 -0.0741,-5.9e-4 -0.0965,-0.0313 z"
       id="path5297" />
    <path
       style="fill:#008000;fill-opacity:1;stroke-width:0.00944496"
       d="m 848.90275,516.12744 c -1.13759,-0.80508 -2.09716,-1.78415 -2.84864,-2.90652 l -0.0532,-0.0796 h 0.079 0.079 l 0.0299,0.0458 c 0.0674,0.10325 0.27243,0.38556 0.40112,0.55241 0.27262,0.35346 0.47213,0.5843 0.80442,0.93082 0.53636,0.55929 1.01175,0.96698 1.63588,1.4029 l 0.21974,0.15347 -0.1041,-5e-4 -0.10409,-5e-4 z"
       id="path5299" />
    <path
       style="fill:#008000;fill-opacity:1;stroke-width:0.00662936"
       d=""
       id="path5301"
       transform="translate(852.9011,496.69685)" />
    <path
       style="fill:#008000;fill-opacity:1;stroke-width:0.00944496"
       d="m 855.6708,518.00406 c -0.0535,-10e-4 -0.30532,-0.007 -0.55976,-0.0126 -0.92889,-0.0206 -1.19399,-0.0344 -1.48692,-0.0778 -1.17494,-0.17376 -1.88947,-0.40101 -3.1206,-0.99242 -1.53759,-0.73864 -2.85979,-1.82172 -3.93318,-3.22191 -0.3184,-0.41533 -0.71871,-1.02614 -0.92334,-1.40884 l -0.0349,-0.0651 h 5.22821 5.22822 v 2.89256 2.89256 l -0.15035,-0.002 c -0.0828,-10e-4 -0.19405,-0.002 -0.24749,-0.005 z"
       id="path5303" />
    <path
       style="fill:#008000;fill-opacity:1;stroke-width:0.00944496"
       d="m 855.32384,518.11571 c -0.58266,-0.009 -1.09133,-0.0236 -1.25163,-0.038 -0.0574,-0.005 -0.18231,-0.0204 -0.27757,-0.0337 -1.65661,-0.23156 -3.21663,-0.81471 -4.59931,-1.71926 l -0.14242,-0.0931 0.0983,-0.002 0.0983,-0.002 0.18293,0.11472 c 0.35592,0.22327 0.70126,0.41324 1.08994,0.59954 1.20033,0.57539 1.91627,0.80406 3.04854,0.97371 0.34362,0.0514 0.58662,0.0651 1.54017,0.0865 0.23408,0.005 0.54529,0.0123 0.6916,0.0157 l 0.26599,0.006 v 0.0519 0.0519 l -0.10875,-10e-4 c -0.0598,-8.6e-4 -0.34602,-0.005 -0.63607,-0.009 z"
       id="path5305" />
    <path
       style="fill:#008000;fill-opacity:1;stroke-width:0.00944496"
       d="m 858.21974,518.13534 c -0.78873,-0.004 -1.5954,-0.007 -1.79258,-0.007 l -0.35853,-10e-4 v -0.0543 -0.0543 l 0.27988,0.006 c 1.03139,0.0233 5.84176,0.0633 7.64221,0.0635 l 0.78411,1.2e-4 v 0.029 0.029 l -2.56051,-0.002 c -1.40828,-10e-4 -3.20584,-0.005 -3.99458,-0.009 z"
       id="path5307" />
    <path
       style="fill:#008000;fill-opacity:1;stroke-width:0.00944496"
       d="m 864.77483,518.115 v -0.0305 l 0.73707,0.006 c 0.40539,0.004 1.34216,0.006 2.08172,0.006 h 1.34464 v 0.0241 0.024 h -2.08171 -2.08172 z"
       id="path5309" />
    <path
       style="fill:#008000;fill-opacity:1;stroke-width:0.0066786"
       d="m 861.16351,506.93601 v -0.0597 h 2.5302 c 1.3916,0 2.5979,-0.002 2.68067,-0.005 l 0.15047,-0.005 -0.0687,0.0123 c -0.13745,0.0244 -0.42735,0.0528 -0.69347,0.0677 -0.61069,0.0345 -1.55934,0.0479 -3.41012,0.048 l -1.18905,8e-5 z"
       id="path5311" />
    <path
       style="fill:#008000;fill-opacity:1;stroke-width:0.0066786"
       d="m 861.16351,508.27928 v -0.0406 l 1.63719,-0.005 c 3.31472,-0.009 4.68051,-0.0407 5.21249,-0.12065 0.15031,-0.0226 0.20767,-0.0433 0.2344,-0.0844 0.0688,-0.10596 0.12009,-0.42614 0.14535,-0.90738 0.0183,-0.34771 0.0183,-1.30631 0,-1.62605 -0.014,-0.24447 -0.038,-0.43559 -0.0697,-0.55184 -0.009,-0.0321 -0.0309,-0.0903 -0.0494,-0.12943 -0.0271,-0.0576 -0.0423,-0.0803 -0.0804,-0.12002 -0.0401,-0.0418 -0.0545,-0.0519 -0.0989,-0.0696 -0.0603,-0.0239 -0.11735,-0.0394 -0.20901,-0.0564 l -0.0654,-0.0123 0.21354,-7.3e-4 0.21356,-7.3e-4 0.0519,0.0571 c 0.11159,0.12286 0.15438,0.27155 0.17877,0.62074 0.0249,0.35586 0.0246,1.87193 -3.1e-4,2.22664 -0.024,0.34097 -0.0666,0.49327 -0.17075,0.60946 -0.051,0.057 -0.13853,0.12866 -0.19538,0.16012 -0.0635,0.0352 -0.16454,0.0497 -0.4287,0.062 -0.38171,0.0179 -0.94289,0.0217 -3.662,0.0252 l -2.8573,0.004 z"
       id="path5313" />
    <path
       style="fill:#008000;fill-opacity:1;stroke-width:0.0066786"
       d="m 865.6531,509.44538 c 0.007,-10e-4 0.0166,-10e-4 0.0229,0 0.007,10e-4 10e-4,0.002 -0.0115,0.002 -0.0126,0 -0.0177,-0.001 -0.0115,-0.002 z"
       id="path5315" />
    <path
       style="fill:#008000;fill-opacity:1;stroke-width:0.0066786"
       d="m 861.16351,509.4375 v -0.0215 h 2.47841 c 1.36313,0 2.75343,-10e-4 3.08955,-0.002 0.63333,-0.002 0.63998,0.001 0.0224,0.0162 -0.70131,0.0163 -1.37654,0.0212 -3.44937,0.0255 l -2.14094,0.005 z"
       id="path5317" />
    <path
       style="fill:#008000;fill-opacity:1;stroke-width:0.0066786"
       d="m 866.7948,506.78136 c 0.0711,-0.0512 0.13395,-0.13091 0.17168,-0.21761 0.0327,-0.0751 0.0417,-0.12225 0.042,-0.21918 3.5e-4,-0.10559 -0.009,-0.1482 -0.0527,-0.24203 -0.0288,-0.0618 -0.0354,-0.0702 -0.144,-0.18239 L 866.698,505.8026 h -2.76729 -2.76727 v -0.0216 -0.0216 l 0.41707,0.005 c 0.22938,0.002 1.52401,0.005 2.87693,0.005 l 2.45987,10e-6 0.0573,0.23692 c 0.0712,0.29435 0.0838,0.3612 0.0841,0.44868 4.8e-4,0.10954 -0.0221,0.17077 -0.0871,0.23608 -0.0386,0.0387 -0.14637,0.10152 -0.19173,0.11163 -0.017,0.004 -0.0151,10e-4 0.0148,-0.0204 z"
       id="path5319" />
    <path
       style="fill:#008000;fill-opacity:1;stroke-width:0.0133572"
       d="m 854.54396,508.20322 c -0.15012,-0.11583 -0.23237,-0.2109 -0.28111,-0.32493 -0.0263,-0.0617 -0.0326,-0.10744 -0.0439,-0.3238 -0.0169,-0.32238 -0.0387,-2.14736 -0.039,-3.25527 l -2.2e-4,-0.85564 h 0.0327 0.0327 l 1.7e-4,0.80109 c 4e-4,1.97642 0.0866,3.48211 0.21274,3.716 0.0207,0.0382 0.0488,0.0624 0.10705,0.092 0.27798,0.14124 0.95127,0.1687 4.54413,0.18531 l 2.04445,0.01 v 0.0319 0.0319 l -3.23513,-3.2e-4 -3.23511,-3.3e-4 -0.1395,-0.10757 z"
       id="path5321" />
    <path
       style="fill:#008000;fill-opacity:1;stroke-width:0.0133572"
       d="m 858.72889,506.9742 c -0.75437,-0.0152 -1.35624,-0.0506 -1.5921,-0.0939 -0.0786,-0.0144 0.85015,-0.0163 2.59398,-0.005 l 1.42293,0.009 v 0.0523 0.0523 l -0.95843,-0.002 c -0.52714,-10e-4 -1.18701,-0.007 -1.46638,-0.0123 z"
       id="path5323" />
    <path
       style="fill:#008000;fill-opacity:1;stroke-width:0.0055653"
       d="m 859.39386,509.44767 c -0.57785,-0.004 -1.37126,-0.0123 -1.99394,-0.0204 -0.1848,-0.002 -0.28486,-0.006 -0.28486,-0.01 0,-0.004 0.41998,-0.005 1.26842,-0.002 0.69762,0.002 1.60778,0.004 2.02256,0.004 h 0.75414 v 0.017 0.017 l -0.57923,-9.3e-4 c -0.31858,-5.4e-4 -0.85277,-0.002 -1.18709,-0.005 z"
       id="path5329" />
    <path
       style="fill:#008000;fill-opacity:1;stroke-width:0.0157409"
       d="m 854.21363,509.32801 c -0.2211,-0.0268 -0.50516,-0.27158 -0.95159,-0.81995 l -0.2469,-0.30328 10e-5,-2.77634 c 8e-5,-2.62685 0.0183,-4.55585 0.0442,-4.68055 0.007,-0.031 0.0161,1.58678 0.0216,3.59491 l 0.0102,3.65115 0.0949,0.20309 c 0.25594,0.54785 0.58408,0.88293 1.06283,1.08537 0.14988,0.0634 0.1466,0.0676 -0.0351,0.0456 z"
       id="path5331" />
    <path
       style="fill:#008000;fill-opacity:1;stroke-width:0.0157409"
       d="m 856.84486,506.81514 c -0.1292,-0.0428 -0.37267,-0.17485 -0.51451,-0.27907 -0.20856,-0.15324 -0.38605,-0.35883 -0.48145,-0.55765 -0.0438,-0.0914 -0.0956,-0.24766 -0.0855,-0.25821 0.003,-0.004 0.0409,0.0586 0.0825,0.13882 0.21827,0.42026 0.47223,0.65818 0.93906,0.87972 0.11884,0.0564 0.21896,0.10547 0.2225,0.10905 0.0163,0.0163 -0.0628,5e-4 -0.16267,-0.0326 z"
       id="path5335" />
    <path
       style="fill:#008000;fill-opacity:1;stroke-width:0.0157409"
       d="m 857.98024,505.77672 c -0.27562,-0.006 -0.55955,-0.0201 -0.63094,-0.0306 -0.28339,-0.0417 -0.48173,-0.22172 -0.54995,-0.49926 -0.0803,-0.32632 0.11527,-0.69284 0.43729,-0.81982 0.075,-0.0296 0.14047,-0.0371 0.43521,-0.0503 0.37215,-0.0166 8.33497,-0.0197 8.39799,-0.004 0.0235,0.006 0.0366,0.0212 0.0366,0.0423 0,0.0326 -0.003,0.0327 -0.55897,0.0217 -1.09713,-0.0216 -2.88492,-0.0411 -4.70682,-0.0514 -2.68854,-0.0152 -3.22276,0.01 -3.53696,0.16316 -0.13868,0.0678 -0.2808,0.2117 -0.34868,0.35292 -0.0411,0.0854 -0.0462,0.11213 -0.0461,0.24067 5e-5,0.12531 0.006,0.15543 0.041,0.22562 0.0798,0.15818 0.25199,0.28135 0.43709,0.31274 0.20008,0.0339 2.01889,0.0799 3.17234,0.0802 0.38797,9e-5 0.5975,0.006 0.5975,0.0162 0,0.0184 -2.36266,0.0178 -3.17642,-8.2e-4 z"
       id="path5337" />
    <path
       style="fill:#008000;fill-opacity:1;stroke-width:0.0055653"
       d="m 854.17934,501.5639 c 0.0114,-1.51382 0.0406,-1.83358 0.18267,-1.99184 0.0385,-0.0428 0.0666,-0.0634 0.24845,-0.18178 l 0.13671,-0.0889 h 1.75637 1.75638 v 0.0757 0.0757 l -0.37481,0.004 c -1.92175,0.0197 -3.28232,0.0728 -3.39336,0.13214 -0.0969,0.0518 -0.17674,0.8527 -0.21774,2.18525 l -0.007,0.22015 h -0.0455 -0.0455 z"
       id="path5339" />
    <path
       style="fill:#008000;fill-opacity:1;stroke-width:0.0055653"
       d="m 853.1684,499.52531 c -3.9e-4,-0.0144 0.0385,-0.18028 0.0579,-0.24673 0.0909,-0.31226 0.23823,-0.51925 0.49033,-0.68896 0.11534,-0.0776 0.26464,-0.15969 0.35362,-0.19433 0.0525,-0.0205 0.20331,-0.063 0.20757,-0.0586 10e-4,0.001 -0.0218,0.0123 -0.0509,0.0238 -0.16825,0.0686 -0.36342,0.18891 -0.50168,0.30929 -0.11955,0.10411 -0.19125,0.18308 -0.28706,0.31622 -0.14924,0.2074 -0.20728,0.31898 -0.25116,0.48291 -0.0102,0.0375 -0.0184,0.0629 -0.0186,0.0564 z"
       id="path5341" />
    <path
       style="fill:#008000;fill-opacity:1;stroke-width:0.0055653"
       d="m 855.96563,500.78722 c 0.002,-0.002 0.13378,-0.0243 0.18722,-0.0312 0.2839,-0.0366 0.86627,-0.0596 1.67093,-0.0657 0.22038,-10e-4 0.40868,-0.004 0.41842,-0.005 l 0.0177,-0.002 v 0.0472 0.0473 l -0.98538,0.004 c -0.54195,0.002 -1.0586,0.005 -1.14808,0.006 -0.0895,10e-4 -0.16186,10e-4 -0.16082,7.2e-4 z"
       id="path5343" />
    <path
       style="fill:#008000;fill-opacity:1;stroke-width:0.0055653"
       d="m 855.87796,501.76955 c -0.12178,-0.0428 -0.17508,-0.0992 -0.2349,-0.24846 -0.0713,-0.17793 -0.0639,-0.33177 0.0246,-0.51538 0.0334,-0.0692 0.0666,-0.11348 0.10523,-0.1404 0.0369,-0.0257 0.1117,-0.0601 0.12485,-0.0574 0.006,0.001 -0.0141,0.0276 -0.061,0.0813 -0.0383,0.0438 -0.082,0.0987 -0.0972,0.12212 -0.0686,0.10535 -0.0939,0.22508 -0.0724,0.3422 0.0199,0.10819 0.0756,0.20633 0.18668,0.32861 0.0977,0.10756 0.0977,0.10756 0.0887,0.10744 -0.005,-5e-5 -0.0334,-0.009 -0.0646,-0.0201 z"
       id="path5345" />
    <path
       style="fill:#008000;fill-opacity:1;stroke-width:0.0055653"
       d="m 853.07116,501.44552 c -10e-4,-0.39056 -0.008,-0.70134 -0.0129,-0.69774 -0.002,0.001 -0.005,0.0173 -0.005,0.0348 0,0.0175 -10e-4,0.0303 -0.003,0.0284 -0.007,-0.007 0.022,-0.50601 0.0417,-0.72281 0.0125,-0.13778 0.0377,-0.35093 0.042,-0.35508 10e-4,-10e-4 10e-4,0.0125 -8.1e-4,0.0312 -0.032,0.28818 -0.0443,0.59453 -0.0525,1.30386 -0.003,0.2734 -0.007,0.53546 -0.007,0.58233 -7.3e-4,0.0469 -0.002,-0.0454 -0.002,-0.20501 z"
       id="path5347" />
  </g>
</svg>
